<svg id="Layer_1" data-name="Layer 1" xmlns="http://www.w3.org/2000/svg" viewBox="0 0 52.37 52.37"><defs><style>.cls-1{fill:#f7b206;}.cls-2{fill:#fff;}</style></defs><rect class="cls-1" x="-0.56" y="-0.29" width="53.29" height="53.29"/><g id="ticket"><path class="cls-2" d="M17.63,22.33a.76.76,0,0,1-.76-.75l0-4.18a.77.77,0,0,1,.75-.77h0a.76.76,0,0,1,.76.76l0,4.17a.77.77,0,0,1-.76.77Z"/><path class="cls-2" d="M17.6,29.92a.76.76,0,0,1-.76-.76V25.75a.76.76,0,0,1,1.52,0v3.41A.76.76,0,0,1,17.6,29.92Z"/><path class="cls-2" d="M17.6,38.66a.76.76,0,0,1-.76-.76V33.34a.76.76,0,1,1,1.52,0V37.9A.76.76,0,0,1,17.6,38.66Z"/><path class="cls-2" d="M34.69,23.09H24.43a.76.76,0,0,1,0-1.52H34.69a.76.76,0,0,1,0,1.52Z"/><path class="cls-2" d="M34.69,33.34H24.43a.76.76,0,1,1,0-1.52H34.69a.76.76,0,0,1,0,1.52Z"/><path class="cls-2" d="M34.69,28.4H24.43a.76.76,0,1,1,0-1.51H34.69a.76.76,0,0,1,0,1.51Z"/><path class="cls-2" d="M43.23,38.66H7.16a2.48,2.48,0,0,1-2.47-2.47V31.06a.76.76,0,0,1,.76-.76,2.66,2.66,0,1,0,0-5.31.76.76,0,0,1-.76-.76V19.1a2.48,2.48,0,0,1,2.47-2.47H43.23A2.48,2.48,0,0,1,45.7,19.1v5.13a.76.76,0,0,1-.76.76,2.66,2.66,0,1,0,0,5.31.76.76,0,0,1,.76.76v5.13A2.48,2.48,0,0,1,43.23,38.66Zm-37-6.91v4.44a1,1,0,0,0,1,1H43.23a1,1,0,0,0,1-1V31.75a4.17,4.17,0,0,1,0-8.21V19.1a1,1,0,0,0-1-1H7.16a1,1,0,0,0-1,1v4.44a4.17,4.17,0,0,1,0,8.21Z"/></g></svg>